<svg width="286" height="286" viewBox="0 0 286 286" fill="none" xmlns="http://www.w3.org/2000/svg">
<path d="M194.48 17.16C159.782 17.16 143.644 34.8734 138.319 42.4867C132.382 50.9637 131.56 57.3144 131.56 62.92C131.56 72.3809 139.259 80.08 148.72 80.08C154.406 80.08 159.706 77.2702 163.098 72.2709C163.098 72.2709 163.653 71.3381 164.07 70.3829C164.253 69.9596 164.46 69.4335 164.74 68.7071C165.049 67.8891 165.479 66.7571 166.159 65.1097C167.601 61.632 170.384 57.3807 173.879 55.8706C178.878 53.7027 185.236 51.48 194.48 51.48C207.321 51.48 216.767 55.3991 222.544 63.1211C230.025 73.1197 229.664 87.1886 227.605 94.2013C222.983 109.903 209.251 117.644 181.509 119.595C182.493 123.336 183.04 127.322 183.04 131.56C183.04 140.792 181 148.29 177.711 154.239C209.19 152.745 230.159 139.579 239.815 115.662C235.477 158.089 192.155 177.32 160.875 177.32C153.204 177.32 150.496 181.121 149.558 183.386C146.721 190.227 153.204 197.752 156.116 200.669C161.704 206.258 167.223 209.897 168.327 210.612C170.271 212.059 184.06 221.815 215.841 232.174L244.441 240.039C244.95 240.176 245.468 240.24 245.971 240.24C248.477 240.24 250.781 238.573 251.479 236.039C252.314 232.991 250.522 229.836 247.479 229.001L219.136 221.225C206.844 217.216 197.418 213.303 190.514 210.031C234.787 202.407 274.56 167.916 274.56 108.68C274.56 33.0388 231.014 17.16 194.48 17.16ZM100.994 85.8894C87.2336 86.5632 70.3796 92.7813 53.3569 108.144L53.1334 108.233C52.9332 108.439 52.7805 108.636 52.586 108.836C48.3532 112.726 44.1156 117.113 39.9171 122.198C28.1625 136.429 26.9492 150.616 25.8852 163.143C25.2904 170.173 24.7315 176.827 22.4778 183.319C16.3288 201.074 11.6568 249.096 11.4623 251.133C11.1821 254.05 13.149 256.711 16.0205 257.288C16.4037 257.368 16.7937 257.4 17.1712 257.4C19.6251 257.4 21.8568 255.815 22.6119 253.389C25.0372 245.639 29.3374 237.993 32.432 235.425C32.4548 235.442 32.4873 235.458 32.5102 235.481C33.2366 236.127 34.08 236.741 35.0238 237.324C35.0467 237.341 35.0623 237.352 35.0909 237.369H35.102L35.1132 237.38H35.0909C35.0165 237.512 34.9576 237.618 34.9233 237.693C33.539 240.461 34.6469 243.753 37.3811 245.212C38.2162 245.663 39.1308 245.882 40.0288 245.882C42.0537 245.882 44.0258 244.808 45.0897 242.944C45.2041 242.749 46.9186 240.026 51.8263 237.726C53.0161 244.201 57.8864 251.68 68.64 251.68C70.5276 251.68 72.3628 251.545 74.1589 251.356C74.7824 251.293 75.3791 251.202 75.9911 251.121C77.1637 250.956 78.3106 250.769 79.4432 250.54C80.1353 250.403 80.835 250.276 81.51 250.116C82.7798 249.813 84.0179 249.482 85.2191 249.122C85.2248 249.11 85.2357 249.111 85.2414 249.099C94.5764 246.285 101.916 241.856 105.932 239.413C123.767 228.562 144.129 238.533 167.69 250.094C183.008 257.604 198.847 265.365 216.276 268.739C216.642 268.802 217.011 268.84 217.371 268.84C220.06 268.84 222.448 266.938 222.968 264.204C223.575 261.103 221.544 258.101 218.444 257.501C202.508 254.417 187.36 247 172.717 239.815C156.066 231.653 140.015 223.835 124.365 223.337C125.275 221.564 125.84 219.614 125.84 217.36C125.84 215.129 125.664 213.304 125.427 211.64C130.592 211.642 135.93 211.651 136.923 211.651C140.28 211.651 143 209.089 143 205.931C143 202.768 142.045 200.32 135.85 198.066C127.985 195.206 125.84 183.051 125.84 177.331C125.84 156.681 108.318 155.192 103.943 170.002C103.666 169.906 103.402 169.802 103.116 169.712C102.653 169.563 102.167 169.436 101.686 169.299C100.903 169.076 100.119 168.851 99.3068 168.651C98.792 168.525 98.269 168.413 97.7427 168.293C97.6322 168.269 97.5182 168.25 97.4076 168.226C98.2475 146.169 106.81 143 114.4 143C120.08 143 122.862 145.781 126.711 149.636C131.396 154.321 137.223 160.16 148.72 160.16C157.214 160.16 171.6 154.137 171.6 131.56C171.6 111.878 157.417 99.52 133.37 97.5752C127.987 97.2434 126.509 97.24 125.84 97.24C94.6774 97.24 62.92 123.22 62.92 148.72C62.92 149.967 62.8982 151.036 62.8753 152.083C62.8677 152.42 62.8529 152.747 62.8418 153.077C59.981 150.696 56.2163 149.187 51.8263 148.865C51.7176 147.778 51.6465 146.676 51.6923 145.715C53.6599 118.493 81.8834 92.4711 113.618 86.9284C109.828 86.0561 105.58 85.6648 100.994 85.8894ZM68.64 189.475L37.18 217.36C32.175 212.355 33.4506 200.6 43.615 196.625C60.06 190.19 68.64 189.475 68.64 189.475ZM47.19 199.485C47.19 199.485 43.615 200.2 40.755 203.06C37.895 205.92 38.61 210.925 38.61 210.925L47.19 199.485ZM80.08 205.887C83.2432 205.887 85.8 208.449 85.8 211.607C85.8 214.69 83.3522 217.206 80.3034 217.327C80.1662 218.185 80.1089 219.529 80.0688 220.421C79.9087 224.265 79.4906 234.475 68.6512 234.487C66.5462 234.487 64.6981 234.638 62.9535 234.833V234.811C62.7762 234.828 62.6281 234.86 62.4508 234.878C61.6843 234.969 60.9423 235.076 60.2388 235.202C59.6381 235.304 59.062 235.417 58.5071 235.537C58.2154 235.6 57.9214 235.658 57.6469 235.727C56.8289 235.921 56.0662 236.135 55.3455 236.363C55.334 236.369 55.3234 236.369 55.312 236.375C54.0192 236.786 52.833 237.229 51.8263 237.704C52.1981 236.629 52.195 234.52 52.195 234.52C52.195 231.363 49.6382 228.8 46.475 228.8H45.76C45.2338 228.8 44.8713 228.69 44.4194 228.632C49.5617 225.664 57.1939 223.092 68.4166 223.047C68.5538 222.189 68.6111 220.844 68.6512 219.952C68.8113 216.108 69.2349 205.887 80.08 205.887Z" fill="#FAFAF9"/>
</svg>
