<svg xmlns="http://www.w3.org/2000/svg" width="64" height="64" viewBox="0 0 64 64">
  <defs>
    <style>
      .cls-1 {
        fill: #fdd633;
        stroke: #fdd633;
      }

      .cls-1, .cls-2, .cls-3 {
        stroke-width: 1px;
        fill-rule: evenodd;
      }

      .cls-2 {
        fill: #f4940b;
        stroke: #f4940b;
      }

      .cls-3 {
        fill: #f2ab0c;
        stroke: #f2ab0c;
      }
    </style>
  </defs>
  <path class="cls-1" d="M31,62l-5-5s-2.357-1.087-4,0l-7,2V52a3.877,3.877,0,0,0-3-3L4,48l3-8s0.9-2.586-1-4L0,32l7-7s0.776-.335,0-2L5,16l8-2a3.187,3.187,0,0,0,2-3l1-7,8,3s2.442,0.438,3-1l5-6Z"/>
  <path id="Shape_1_copy" data-name="Shape 1 copy" class="cls-1" d="M31,63l7-6s2.357-1.087,4,0l7,2V52a3.877,3.877,0,0,1,3-3l8-1-3-8s-0.9-2.586,1-4l6-4-7-7s-0.776-.335,0-2l2-7-8-2a3.187,3.187,0,0,1-2-3L48,4,40,7s-2.442.438-3-1L32,0Z"/>
  <path class="cls-2" d="M31.463,11.095q0.46,0,.916.02c0.073,0,.22-0.062.219,0.011C32.377,25,32.366,25.4,32.391,51.9c0,0.307-.617,0-0.927,0A20.4,20.4,0,0,1,31.463,11.095Z"/>
  <path id="Ellipse_1_copy" data-name="Ellipse 1 copy" class="cls-3" d="M33.364,11.095q-0.4,0-.789.02c-0.063,0-.189-0.062-0.188.011,0.19,13.825.2,14.226,0.178,40.631,0,0.306.532,0,.8,0,9.706,0,17.575-9.1,17.575-20.331S43.07,11.095,33.364,11.095Z"/>
</svg>
